<svg xmlns="http://www.w3.org/2000/svg" xmlns:xlink="http://www.w3.org/1999/xlink">
  <defs>
    <symbol viewBox="0 0 20 20" id="icon-trash">
      <svg fill="currentColor" version="1.1" xmlns="http://www.w3.org/2000/svg"
        viewBox="0 0 315 315" xmlns:xlink="http://www.w3.org/1999/xlink"
        enable-background="new 0 0 315 315">
        <title>trash</title>
        <g>
          <path
            d="m256.774,23.942h-64.836v-6.465c0-9.636-7.744-17.477-17.263-17.477h-34.348c-9.521,0-17.266,7.841-17.266,17.478v6.465h-64.835c-9.619,0-17.445,7.76-17.445,17.297v11.429c0,7.168 4.42,13.33 10.698,15.951 1.989,39.623 13.5,231.193 14.018,239.801 0.222,3.696 3.284,6.58 6.987,6.58h170.033c3.703,0 6.766-2.884 6.987-6.58 0.518-8.607 12.028-200.178 14.018-239.801 6.278-2.621 10.698-8.783 10.698-15.951v-11.43c5.68434e-14-9.537-7.826-17.297-17.446-17.297zm-119.713-6.464c0-1.918 1.465-3.478 3.266-3.478h34.348c1.8,0 3.264,1.56 3.264,3.478v6.465h-40.877v-6.465zm-82.282,23.761c0-1.818 1.546-3.297 3.445-3.297h198.549c1.899,0 3.445,1.478 3.445,3.297v11.429c0,1.819-1.546,3.299-3.445,3.299h-198.548c-1.899,0-3.445-1.479-3.445-3.299v-11.429zm181.143,259.761h-156.848c-2.055-34.247-11.479-191.674-13.51-231.033h183.867c-2.031,39.359-11.454,196.786-13.509,231.033z" />
          <path
            d="m157.5,95.125c-3.866,0-7,3.134-7,7v176.109c0,3.866 3.134,7 7,7 3.866,0 7-3.134 7-7v-176.109c0-3.866-3.134-7-7-7z" />
          <path
            d="m110.2,102.04c-0.202-3.86-3.507-6.837-7.355-6.625-3.86,0.201-6.827,3.494-6.625,7.355l9.182,175.829c0.195,3.736 3.285,6.635 6.984,6.635 0.123,0 0.247-0.003 0.371-0.01 3.86-0.201 6.827-3.494 6.625-7.355l-9.182-175.829z" />
          <path
            d="m212.155,95.415c-3.899-0.223-7.153,2.764-7.355,6.625l-9.184,175.829c-0.202,3.861 2.765,7.154 6.625,7.355 0.125,0.007 0.248,0.01 0.371,0.01 3.698,0 6.789-2.898 6.984-6.635l9.184-175.829c0.202-3.861-2.764-7.154-6.625-7.355z" />
        </g>
      </svg>
    </symbol>

    <symbol viewBox="0 0 20 20" id="icon-new-window">
      <svg viewBox="0 0 17 17" version="1.1" xmlns="http://www.w3.org/2000/svg"
        xmlns:xlink="http://www.w3.org/1999/xlink">
        <title>New window</title>
        <path
          d="M15 2v7.5h-1v-5.668l-9.334 9.334-0.707-0.707 9.459-9.459h-5.918v-1h7.5zM11 16h-10v-10h6.574v-1h-7.574v12h12v-7.714h-1v6.714z"
          fill="currentColor" />
      </svg>
    </symbol>
    <symbol viewBox="0 0 24 24" id="icon-complete">
      <svg viewBox="0 0 24 24" xmlns="http://www.w3.org/2000/svg">
        <title>Complete</title>
        <g id="Complete">
          <g id="tick">
            <polyline fill="none" points="3.7 14.3 9.6 19 20.3 5" stroke="currentColor"
              stroke-linecap="round" stroke-linejoin="round" stroke-width="2" />
          </g>
        </g>
      </svg>
    </symbol>

    <symbol viewBox="0 0 24 24" id="icon-cancel">
      <svg viewBox="0 0 22 22" version="1.1" xmlns="http://www.w3.org/2000/svg"
        xmlns:xlink="http://www.w3.org/1999/xlink">

        <title>cancel</title>
        <g id="icons" stroke="none" stroke-width="1" fill="none" fill-rule="evenodd">
          <g id="ui-gambling-website-lined-icnos-casinoshunter"
            transform="translate(-869.000000, -159.000000)" fill="currentColor" fill-rule="nonzero">
            <g id="square-filled" transform="translate(50.000000, 120.000000)">
              <path
                d="M820.716328,39.2890737 L830,48.573 L839.283672,39.2890737 C839.644156,38.9285898 840.211387,38.9008602 840.603678,39.2058851 L840.710926,39.3021143 C841.101451,39.6926386 841.101451,40.3258036 840.710926,40.7163279 L831.427,50 L840.710926,59.2836721 C841.07141,59.6441561 841.09914,60.2113872 840.794115,60.6036784 L840.697886,60.7109263 C840.307361,61.1014506 839.674196,61.1014506 839.283672,60.7109263 L830,51.427 L820.716328,60.7109263 C820.355844,61.0714102 819.788613,61.0991398 819.396322,60.7941149 L819.289074,60.6978857 C818.898549,60.3073614 818.898549,59.6741964 819.289074,59.2836721 L828.573,50 L819.289074,40.7163279 C818.92859,40.3558439 818.90086,39.7886128 819.205885,39.3963216 L819.302114,39.2890737 C819.692639,38.8985494 820.325804,38.8985494 820.716328,39.2890737 Z M819.996181,40.0092211 L829.987233,50 L819.996181,59.9907789 L820.009221,60.0038195 L830,50.0127671 L839.990779,60.0038195 L840.003819,59.9907789 L830.012767,50 L840.003819,40.0092211 L839.990779,39.9961805 L830,49.9872329 L820.009221,39.9961805 L819.996181,40.0092211 Z"
                id="cancel">

              </path>
            </g>
          </g>
        </g>
      </svg>
    </symbol>

    <symbol viewBox="0 0 38 38"  id="icon-arrow-left">
      <svg viewBox="0 -6.5 38 38" version="1.1" xmlns="http://www.w3.org/2000/svg"
        xmlns:xlink="http://www.w3.org/1999/xlink">
        <title>left-arrow</title>
        <g id="icons" stroke="none" stroke-width="1" fill="none" fill-rule="evenodd">
          <g id="ui-gambling-website-lined-icnos-casinoshunter"
            transform="translate(-1641.000000, -158.000000)" fill="currentColor" fill-rule="nonzero">
            <g id="1" transform="translate(1350.000000, 120.000000)">
              <path
                d="M317.812138,38.5802109 L328.325224,49.0042713 L328.41312,49.0858421 C328.764883,49.4346574 328.96954,49.8946897 329,50.4382227 L328.998248,50.6209428 C328.97273,51.0514917 328.80819,51.4628128 328.48394,51.8313977 L328.36126,51.9580208 L317.812138,62.4197891 C317.031988,63.1934036 315.770571,63.1934036 314.990421,62.4197891 C314.205605,61.6415481 314.205605,60.3762573 314.990358,59.5980789 L322.274264,52.3739093 L292.99947,52.3746291 C291.897068,52.3746291 291,51.4850764 291,50.3835318 C291,49.2819872 291.897068,48.3924345 292.999445,48.3924345 L322.039203,48.3917152 L314.990421,41.4019837 C314.205605,40.6237427 314.205605,39.3584519 314.990421,38.5802109 C315.770571,37.8065964 317.031988,37.8065964 317.812138,38.5802109 Z"
                id="left-arrow"
                transform="translate(310.000000, 50.500000) scale(-1, 1) translate(-310.000000, -50.500000) ">

              </path>
            </g>
          </g>
        </g>
      </svg>
    </symbol>

  </defs>
</svg>
